<svg xmlns="http://www.w3.org/2000/svg" viewBox="0 0 400 400" role="img">
<title>Sun-bleached khaki small-fleck woodland camo</title>
<rect width="400" height="400" fill="#d3c795"/>
<path d="M67.5,244.7C63.7,245.6 58.5,243.8 54.5,241.6C50.4,239.4 43.9,235.1 43.4,231.3C42.9,227.5 48.6,222.4 51.4,218.7C54.3,215.0 57.2,209.7 60.6,209.1C64.0,208.6 69.2,213.0 72.0,215.6C74.8,218.2 76.5,221.3 77.4,224.7C78.3,228.2 79.1,233.0 77.5,236.3C75.9,239.6 71.4,243.8 67.5,244.7Z" fill="#7c8448"/>
<path d="M368.2,122.5C367.5,126.4 363.2,130.4 360.1,133.1C357.1,135.8 353.0,138.7 349.7,138.6C346.3,138.6 344.2,133.7 340.2,132.6C336.1,131.5 327.5,134.2 325.3,131.8C323.2,129.4 326.7,122.6 327.3,118.1C327.9,113.6 326.8,108.7 329.0,104.9C331.1,101.0 335.7,97.0 340.5,95.1C345.3,93.2 353.6,91.3 357.6,93.7C361.5,96.1 362.5,104.7 364.3,109.5C366.0,114.3 368.9,118.5 368.2,122.5Z" fill="#7c8448"/>
<path d="M196.1,263.1C192.6,267.0 188.0,277.4 183.8,277.5C179.7,277.7 173.9,268.2 171.1,263.9C168.4,259.5 169.1,255.4 167.4,251.5C165.7,247.6 162.0,245.3 160.7,240.5C159.4,235.7 157.2,226.8 159.7,222.7C162.3,218.6 170.1,218.1 175.9,215.7C181.7,213.4 189.7,207.1 194.6,208.8C199.5,210.5 204.0,220.4 205.4,225.8C206.7,231.3 202.9,236.8 202.8,241.5C202.7,246.1 206.1,250.2 205.0,253.8C203.9,257.4 199.6,259.1 196.1,263.1Z" fill="#5c6b2f"/>
<path d="M44.9,366.0C37.3,363.8 25.7,362.7 22.4,357.2C19.0,351.7 22.7,339.9 24.9,333.2C27.1,326.4 30.9,321.2 35.5,316.8C40.1,312.4 46.9,307.0 52.6,306.8C58.4,306.7 64.8,312.1 70.0,316.0C75.1,319.9 80.5,324.0 83.3,330.3C86.2,336.6 89.5,347.3 87.0,353.9C84.4,360.6 74.9,368.2 67.9,370.2C60.9,372.2 52.5,368.2 44.9,366.0Z" fill="#a8a06a"/>
<path d="M244.7,90.0C243.1,85.9 240.1,82.8 240.1,79.0C240.0,75.2 241.8,69.8 244.5,66.9C247.3,64.1 252.9,61.3 256.4,61.8C259.9,62.4 262.1,68.4 265.6,70.1C269.1,71.9 274.5,69.9 277.4,72.3C280.2,74.8 284.3,81.9 282.7,84.7C281.2,87.5 271.4,87.5 268.0,89.3C264.6,91.0 265.6,92.7 262.5,95.1C259.4,97.4 252.5,104.4 249.6,103.5C246.6,102.7 246.3,94.1 244.7,90.0Z" fill="#4a5228"/>
<path d="M353.9,272.1C359.6,272.5 369.8,270.9 374.3,274.7C378.9,278.5 383.6,290.2 381.1,295.1C378.6,300.1 364.3,301.1 359.3,304.3C354.4,307.5 354.7,313.5 351.3,314.5C347.9,315.5 343.6,311.6 339.0,310.4C334.3,309.2 327.5,310.5 323.6,307.4C319.6,304.2 314.9,296.4 315.4,291.4C315.8,286.4 322.3,280.7 326.4,277.4C330.5,274.2 335.5,272.7 340.0,271.8C344.6,270.9 348.1,271.6 353.9,272.1Z" fill="#5c6b2f"/>
<path d="M277.9,203.6C273.7,203.4 266.7,202.8 264.9,199.9C263.0,196.9 266.5,189.8 266.9,185.9C267.3,182.1 267.1,181.2 267.4,176.8C267.6,172.3 265.5,163.2 268.6,159.5C271.6,155.8 281.1,152.8 285.5,154.5C289.9,156.2 293.0,165.3 294.7,169.8C296.4,174.3 294.0,176.9 295.7,181.2C297.4,185.6 306.0,192.4 305.1,195.8C304.1,199.1 294.6,200.0 290.1,201.3C285.6,202.6 282.1,203.8 277.9,203.6Z" fill="#8a6b46"/>
<path d="M92.3,320.0C96.0,327.2 99.9,338.6 96.8,347.4C93.6,356.1 82.6,370.6 73.2,372.4C63.8,374.3 46.1,366.0 40.4,358.6C34.7,351.3 37.4,336.8 39.1,328.1C40.8,319.4 44.6,310.4 50.5,306.4C56.5,302.4 67.7,302.0 74.7,304.3C81.6,306.6 88.6,312.9 92.3,320.0Z" fill="#8a6b46"/>
<path d="M262.0,285.1C268.6,282.3 281.4,280.9 288.3,284.9C295.3,288.8 301.4,299.5 303.8,308.6C306.1,317.8 307.2,332.4 302.2,339.8C297.2,347.1 283.5,351.3 273.6,352.9C263.7,354.6 250.3,354.8 242.6,349.6C234.8,344.4 226.1,329.8 227.0,321.8C228.0,313.8 242.4,307.8 248.3,301.6C254.1,295.5 255.3,287.9 262.0,285.1Z" fill="#a8a06a"/>
<path d="M311.3,198.2C310.6,201.4 308.2,205.7 305.3,207.7C302.4,209.7 297.0,211.3 293.9,210.3C290.7,209.2 288.2,204.1 286.4,201.4C284.6,198.7 283.7,196.5 283.1,194.0C282.5,191.6 282.1,188.8 282.9,186.7C283.6,184.6 285.8,182.9 287.5,181.5C289.2,180.2 290.5,180.1 293.0,178.4C295.5,176.6 300.4,170.2 302.4,170.9C304.4,171.5 303.8,179.4 305.0,182.3C306.2,185.2 308.8,185.8 309.8,188.5C310.9,191.1 312.1,195.0 311.3,198.2Z" fill="#5c6b2f"/>
<path d="M71.6,341.1C67.1,337.1 63.9,332.1 63.4,327.2C62.9,322.3 64.8,315.8 68.4,311.6C71.9,307.4 80.4,301.1 84.7,302.2C89.0,303.2 92.5,313.2 94.1,317.8C95.7,322.5 95.0,324.4 94.4,330.0C93.8,335.6 94.3,349.6 90.5,351.5C86.8,353.3 76.1,345.2 71.6,341.1Z" fill="#a8a06a"/>
<path d="M217.3,301.3C215.6,303.3 211.3,302.0 208.2,303.6C205.0,305.1 201.0,311.0 198.5,310.4C195.9,309.9 194.5,303.2 192.9,300.3C191.3,297.3 189.7,295.4 189.1,292.7C188.5,290.0 188.9,287.3 189.5,283.9C190.0,280.6 190.0,275.8 192.3,272.8C194.7,269.9 200.2,265.9 203.6,266.5C206.9,267.0 209.6,273.8 212.6,276.3C215.7,278.9 221.0,279.1 221.9,281.7C222.8,284.3 218.7,288.7 217.9,292.0C217.2,295.3 218.9,299.4 217.3,301.3Z" fill="#5c6b2f"/>
<path d="M237.0,336.9C231.8,331.9 232.0,316.3 234.1,309.5C236.1,302.6 243.5,300.6 249.3,295.7C255.1,290.7 261.9,279.4 269.0,279.7C276.2,280.0 288.5,289.5 292.1,297.5C295.7,305.5 294.9,320.4 290.4,327.4C285.9,334.4 274.0,337.9 265.1,339.4C256.2,341.0 242.2,341.9 237.0,336.9Z" fill="#8a6b46"/>
<path d="M92.1,140.6C95.2,144.2 99.8,146.9 100.8,151.1C101.8,155.4 100.7,162.5 97.9,166.0C95.1,169.5 88.5,172.0 84.2,172.2C79.8,172.4 76.4,168.8 72.0,167.1C67.5,165.3 61.0,165.4 57.5,161.5C54.1,157.6 49.3,147.6 51.3,143.5C53.3,139.3 64.3,138.9 69.5,136.6C74.7,134.2 78.7,128.5 82.5,129.2C86.2,129.9 89.0,136.9 92.1,140.6Z" fill="#4a5228"/>
<path d="M70.4,307.2C75.3,306.2 76.1,304.5 79.6,303.6C83.1,302.8 86.5,301.7 91.4,302.2C96.3,302.7 107.4,303.0 108.9,306.4C110.4,309.9 103.3,319.0 100.5,323.1C97.8,327.1 94.2,326.3 92.4,330.5C90.6,334.7 93.0,345.5 90.0,348.3C87.0,351.1 79.6,348.2 74.3,347.3C69.0,346.4 60.8,346.4 58.0,342.8C55.2,339.2 58.8,331.3 57.5,325.7C56.3,320.2 48.3,312.4 50.5,309.3C52.6,306.2 65.6,308.1 70.4,307.2Z" fill="#7c8448"/>
</svg>
